<?xml version="1.0" standalone="no"?><!DOCTYPE svg PUBLIC "-//W3C//DTD SVG 1.1//EN" "http://www.w3.org/Graphics/SVG/1.1/DTD/svg11.dtd"><svg t="1655817628683" class="icon" viewBox="0 0 1024 1024" version="1.1" xmlns="http://www.w3.org/2000/svg" p-id="1058" xmlns:xlink="http://www.w3.org/1999/xlink" width="200" height="200"><defs><style type="text/css">@font-face { font-family: feedback-iconfont; src: url("//at.alicdn.com/t/font_1031158_u69w8yhxdu.woff2?t=1630033759944") format("woff2"), url("//at.alicdn.com/t/font_1031158_u69w8yhxdu.woff?t=1630033759944") format("woff"), url("//at.alicdn.com/t/font_1031158_u69w8yhxdu.ttf?t=1630033759944") format("truetype"); }
</style></defs><path d="M511.8464 512m-432.3328 0a432.3328 432.3328 0 1 0 864.6656 0 432.3328 432.3328 0 1 0-864.6656 0Z" fill="#FAD400" p-id="1059"></path><path d="M286.9248 417.8432c-85.0432 0-160.4096 41.3696-207.104 105.0624 4.5568 182.7328 122.368 337.3056 285.952 396.032 103.2192-33.28 177.92-130.048 177.92-244.3776-0.0512-141.7728-114.9952-256.7168-256.768-256.7168z" fill="#FFE771" p-id="1060"></path><path d="M663.6544 755.5584H358.8608c-60.7232 0-110.1312-49.408-110.1312-110.1312V410.3168c0-60.7232 49.408-110.1312 110.1312-110.1312h31.9488a30.3104 30.3104 0 0 1 30.3104 30.3104 30.3104 30.3104 0 0 1-30.3104 30.3104h-31.9488c-27.2896 0-49.5104 22.2208-49.5104 49.5104v235.1104c0 27.2896 22.2208 49.5104 49.5104 49.5104h304.7936c27.2896 0 49.5104-22.2208 49.5104-49.5104v-78.3872a30.3104 30.3104 0 0 1 30.3104-30.3104 30.3104 30.3104 0 0 1 30.3104 30.3104v78.3872c0 60.7232-49.408 110.1312-110.1312 110.1312z" fill="#FFF4C5" p-id="1061"></path><path d="M353.9968 580.3008c-0.7168-68.0448 18.0224-223.8464 200.8576-249.8048v-60.416c0-18.176 20.736-28.6208 35.328-17.7152l179.2 133.6832c11.776 8.7552 11.8784 26.368 0.2048 35.2768l-177.7664 135.936c-14.5408 11.1104-35.5328 0.768-35.5328-17.5616V477.5424s-111.2576-9.2672-185.088 107.52c-5.0176 7.8848-17.1008 4.5568-17.2032-4.7616z" fill="#FFFFFF" p-id="1062"></path></svg>