<?xml version="1.0" standalone="no"?><!DOCTYPE svg PUBLIC "-//W3C//DTD SVG 1.1//EN" "http://www.w3.org/Graphics/SVG/1.1/DTD/svg11.dtd"><svg t="1655817521131" class="icon" viewBox="0 0 1024 1024" version="1.1" xmlns="http://www.w3.org/2000/svg" p-id="1206" xmlns:xlink="http://www.w3.org/1999/xlink" width="200" height="200"><defs><style type="text/css">@font-face { font-family: feedback-iconfont; src: url("//at.alicdn.com/t/font_1031158_u69w8yhxdu.woff2?t=1630033759944") format("woff2"), url("//at.alicdn.com/t/font_1031158_u69w8yhxdu.woff?t=1630033759944") format("woff"), url("//at.alicdn.com/t/font_1031158_u69w8yhxdu.ttf?t=1630033759944") format("truetype"); }
</style></defs><path d="M512 512.8704m-432.3328 0a432.3328 432.3328 0 1 0 864.6656 0 432.3328 432.3328 0 1 0-864.6656 0Z" fill="#F8A10F" p-id="1207"></path><path d="M287.0272 418.7136c-85.0432 0-160.4096 41.3696-207.104 105.0624 4.5568 182.7328 122.368 337.3056 285.952 396.032 103.2192-33.28 177.92-130.048 177.92-244.3776 0-141.7216-114.944-256.7168-256.768-256.7168z" fill="#FFBD48" p-id="1208"></path><path d="M573.184 251.4944L624.64 355.7888a45.8752 45.8752 0 0 0 34.5088 25.088l115.0976 16.7424c37.5808 5.4784 52.5824 51.6608 25.3952 78.1824l-83.3024 81.2032a45.78816 45.78816 0 0 0-13.1584 40.5504l19.6608 114.6368c6.4 37.4272-32.8704 65.9968-66.5088 48.3328l-102.9632-54.1184a45.8496 45.8496 0 0 0-42.6496 0l-102.9632 54.1184c-33.6384 17.664-72.9088-10.8544-66.5088-48.3328l19.6608-114.6368c2.56-14.848-2.3552-30.0544-13.1584-40.5504L264.4992 475.7504c-27.1872-26.5216-12.1856-72.704 25.3952-78.1824l115.0976-16.7424a45.63968 45.63968 0 0 0 34.5088-25.088L491.008 251.4944c16.7936-34.048 65.3824-34.048 82.176 0z" fill="#FFFFFF" p-id="1209"></path><path d="M510.7712 706.3552a45.8496 45.8496 0 0 1 42.6496 0l102.9632 54.1184c33.6384 17.664 72.9088-10.8544 66.5088-48.3328l-19.6608-114.6368c-2.56-14.848 2.3552-30.0544 13.1584-40.5504l-205.6192 149.4016z" fill="#FFEACC" p-id="1210"></path></svg>