<?xml version="1.0" standalone="no"?><!DOCTYPE svg PUBLIC "-//W3C//DTD SVG 1.1//EN" "http://www.w3.org/Graphics/SVG/1.1/DTD/svg11.dtd"><svg t="1655816809685" class="icon" viewBox="0 0 1024 1024" version="1.1" xmlns="http://www.w3.org/2000/svg" p-id="1058" xmlns:xlink="http://www.w3.org/1999/xlink" width="200" height="200"><defs><style type="text/css">@font-face { font-family: feedback-iconfont; src: url("//at.alicdn.com/t/font_1031158_u69w8yhxdu.woff2?t=1630033759944") format("woff2"), url("//at.alicdn.com/t/font_1031158_u69w8yhxdu.woff?t=1630033759944") format("woff"), url("//at.alicdn.com/t/font_1031158_u69w8yhxdu.ttf?t=1630033759944") format("truetype"); }
</style></defs><path d="M511.4368 512m-432.3328 0a432.3328 432.3328 0 1 0 864.6656 0 432.3328 432.3328 0 1 0-864.6656 0Z" fill="#FF6161" p-id="1059"></path><path d="M286.464 417.8432c-85.0432 0-160.4096 41.3696-207.104 105.0624 4.5568 182.7328 122.368 337.3056 285.952 396.032 103.2192-33.28 177.92-130.048 177.92-244.3776 0-141.7728-114.944-256.7168-256.768-256.7168z" fill="#FF7D7D" p-id="1060"></path><path d="M342.6304 721.6128h6.7584V427.9808h-6.7584c-36.096 0-65.3824 29.2864-65.3824 65.3824v162.9184c0.0512 36.0448 29.2864 65.3312 65.3824 65.3312z" fill="#FFCAC7" p-id="1061"></path><path d="M710.656 390.9632h-136.8064c10.6496-34.9696 24.9344-106.8032-25.088-137.1648-23.5008-14.1824-78.8992-24.1664-77.568 37.9904 1.28 62.1568-2.2528 130.4064-81.152 136.192v293.632h280.2688c31.744 0 59.136-22.3232 65.4848-53.4528l40.2944-196.9152c8.5504-41.472-23.0912-80.2816-65.4336-80.2816z" fill="#FFFFFF" p-id="1062"></path></svg>